<svg width="12.834839" height="6.575378" viewBox="0 0 12.8348 6.57538" fill="none" xmlns="http://www.w3.org/2000/svg" xmlns:xlink="http://www.w3.org/1999/xlink">
	<desc>
			Created with Pixso.
	</desc>
	<defs/>
	<path id="Vector" d="M12.5682 0.271118C12.483 0.185242 12.3816 0.117065 12.2699 0.0704956C12.1582 0.0239868 12.0385 0 11.9174 0C11.7964 0 11.6765 0.0239868 11.5648 0.0704956C11.4531 0.117065 11.3518 0.185242 11.2666 0.271118L7.06824 4.46948C6.98303 4.55542 6.88159 4.6236 6.7699 4.6701C6.6582 4.71667 6.53845 4.7406 6.41736 4.7406C6.29639 4.7406 6.17651 4.71667 6.06482 4.6701C5.95312 4.6236 5.85181 4.55542 5.7666 4.46948L1.56824 0.271118C1.48303 0.185242 1.38159 0.117065 1.2699 0.0704956C1.1582 0.0239868 1.03845 0 0.917358 0C0.796387 0 0.676514 0.0239868 0.564819 0.0704956C0.453125 0.117065 0.351807 0.185242 0.266602 0.271118C0.0958252 0.442871 0 0.675232 0 0.917419C0 1.15955 0.0958252 1.39191 0.266602 1.56366L4.47412 5.77112C4.98975 6.28613 5.6886 6.57538 6.41736 6.57538C7.14612 6.57538 7.84509 6.28613 8.36072 5.77112L12.5682 1.56366C12.739 1.39191 12.8348 1.15955 12.8348 0.917419C12.8348 0.675232 12.739 0.442871 12.5682 0.271118Z" fill="#FFFFFF" fill-opacity="1.000000" fill-rule="nonzero"/>
</svg>
