<svg width="41.185059" height="155.491196" viewBox="0 0 41.1851 155.491" fill="none" xmlns="http://www.w3.org/2000/svg" xmlns:xlink="http://www.w3.org/1999/xlink">
	<desc>
			Created with Pixso.
	</desc>
	<defs>
		<linearGradient id="paint_linear_113_345_0" x1="36.791336" y1="158.276230" x2="-11.657089" y2="8.355255" gradientUnits="userSpaceOnUse">
			<stop stop-color="#FFFFFF"/>
			<stop offset="1.000000" stop-color="#FFFFFF" stop-opacity="0.000000"/>
		</linearGradient>
	</defs>
	<path id="Arrow 4" d="M27.7288 1.57236Q13.1655 25.2364 7.36731 43.9139Q1.5863 62.5355 3.45801 79.6326Q5.2428 95.9358 14.4198 114.247Q22.4775 130.324 39.0151 153.109L36.5872 154.871Q19.9054 131.888 11.7378 115.591Q2.31921 96.7981 0.47583 79.9591Q-1.46375 62.2419 4.5022 43.0244Q10.4125 23.986 25.1738 0L27.7288 1.57236ZM36.5551 152.273L38.2026 141.904C38.3345 141.074 39.0898 140.526 39.9194 140.657C40.749 140.789 41.2974 141.545 41.1655 142.374L39.2826 154.226C39.1508 155.055 38.3954 155.603 37.5658 155.472L25.7145 153.589C24.8849 153.457 24.3365 152.702 24.4684 151.872C24.6002 151.042 25.3556 150.494 26.1852 150.626L36.5551 152.273Z" fill="url(#paint_linear_113_345_0)" fill-opacity="1.000000" fill-rule="evenodd"/>
</svg>
