<svg width="689.512939" height="344.908203" viewBox="0 0 689.513 344.908" fill="none" xmlns="http://www.w3.org/2000/svg" xmlns:xlink="http://www.w3.org/1999/xlink">
	<desc>
			Created with Pixso.
	</desc>
	<defs/>
	<path id="Ellipse 26" d="M689.504 331.793C686.131 241.818 648.209 160.594 588.636 101.021C521.397 33.6519 433.073 0 344.749 0C249.566 -0.0917969 163.316 38.5669 100.862 101.021C36.8281 164.932 3.25537 247.891 0.00952148 331.793C-0.270508 339.031 5.62451 344.908 12.8673 344.908C20.1049 344.908 25.9438 339.039 26.2371 331.807C29.5912 249.062 64.5715 174.387 119.4 119.559C181.528 57.3101 263.139 26.2158 344.749 26.2158C432.697 26.1309 512.392 61.8516 570.099 119.559C629.016 178.362 660.024 254.618 663.246 331.808C663.548 339.041 669.391 344.908 676.631 344.908C683.876 344.908 689.775 339.033 689.504 331.793Z" fill="#303030" fill-opacity="1.000000" fill-rule="evenodd"/>
</svg>
