<svg width="155.400146" height="213.000000" viewBox="0 0 155.4 213" fill="none" xmlns="http://www.w3.org/2000/svg" xmlns:xlink="http://www.w3.org/1999/xlink">
	<desc>
			Created with Pixso.
	</desc>
	<defs>
		<linearGradient id="paint_linear_113_325_0" x1="78.757080" y1="-48.500000" x2="78.757080" y2="303.500000" gradientUnits="userSpaceOnUse">
			<stop stop-color="#3D4F3B"/>
			<stop offset="1.000000" stop-color="#3D4F3B" stop-opacity="0.000000"/>
		</linearGradient>
	</defs>
	<path id="2" d="M4.95911e-05 213L4.95911e-05 176.4L69.9 119.1C83.7001 107.7 93.2001 98.6 98.4 91.8C103.6 84.8 106.2 77.1 106.2 68.7C106.2 60.1 103.6 53.4 98.4 48.6C93.2001 43.8 86.4001 41.4 78.0001 41.4C70.2001 41.4 63.1001 43.6 56.7001 48C50.5001 52.2 43.3001 59.4 35.1001 69.6L2.70005 43.5C13.7001 28.5 25 17.5 36.6001 10.5C48.4001 3.49998 63.2001 -1.52588e-05 81.0001 -1.52588e-05C102.8 -1.52588e-05 120.3 5.99998 133.5 18C146.7 29.8 153.3 45.6 153.3 65.4C153.3 76.8 151.1 87.1 146.7 96.3C142.3 105.3 136.6 113.3 129.6 120.3C122.6 127.1 112.1 135.9 98.1001 146.7L63.9001 173.1L155.4 173.1L155.4 213L4.95911e-05 213Z" fill="url(#paint_linear_113_325_0)" fill-opacity="0.370000" fill-rule="evenodd"/>
</svg>
